<svg xmlns="http://www.w3.org/2000/svg" xmlns:xlink="http://www.w3.org/1999/xlink" width="500" zoomAndPan="magnify" viewBox="0 0 375 374.999991" height="500" preserveAspectRatio="xMidYMid meet" version="1.0"><defs><filter x="0%" y="0%" width="100%" height="100%" id="fc541eda53"><feColorMatrix values="0 0 0 0 1 0 0 0 0 1 0 0 0 0 1 0 0 0 1 0" color-interpolation-filters="sRGB"/></filter><g/><mask id="73891fd1a1"><g filter="url(#fc541eda53)"><rect x="-127.5" width="540" fill="#000000" y="-229.499998" height="539.999987" fill-opacity="0.7"/></g></mask><clipPath id="71b5a34603"><path d="M 0.921875 0.28125 L 134.601562 0.28125 L 134.601562 39.160156 L 0.921875 39.160156 Z M 0.921875 0.28125 " clip-rule="nonzero"/></clipPath><clipPath id="7aa92043be"><rect x="0" width="135" y="0" height="40"/></clipPath><clipPath id="33ce994821"><rect x="0" width="135" y="0" height="40"/></clipPath><clipPath id="e24f766c49"><path d="M 94 38 L 273.71875 38 L 273.71875 77.878906 L 94 77.878906 Z M 94 38 " clip-rule="nonzero"/></clipPath><clipPath id="229b875f4a"><rect x="0" width="180" y="0" height="40"/></clipPath><clipPath id="3930dac753"><path d="M 0.839844 18 L 63 18 L 63 65 L 0.839844 65 Z M 0.839844 18 " clip-rule="nonzero"/></clipPath><clipPath id="6bf5a7c419"><rect x="0" width="63" y="0" height="47"/></clipPath><clipPath id="1aba4a1eb7"><path d="M 82 15 L 85 15 L 85 77.878906 L 82 77.878906 Z M 82 15 " clip-rule="nonzero"/></clipPath><clipPath id="7b3df87171"><path d="M 64 0.121094 L 110 0.121094 L 110 69 L 64 69 Z M 64 0.121094 " clip-rule="nonzero"/></clipPath><clipPath id="d7537f7e2f"><rect x="0" width="46" y="0" height="69"/></clipPath><clipPath id="13f1ef49b3"><rect x="0" width="274" y="0" height="78"/></clipPath></defs><rect x="-37.5" width="450" fill="#ffffff" y="-37.499999" height="449.999989" fill-opacity="1"/><rect x="-37.5" width="450" fill="#ffffff" y="-37.499999" height="449.999989" fill-opacity="1"/><g transform="matrix(1, 0, 0, 1, 45, 147)"><g clip-path="url(#13f1ef49b3)"><g mask="url(#73891fd1a1)"><g transform="matrix(1, 0, 0, 1, 94, 14)"><g clip-path="url(#33ce994821)"><g clip-path="url(#71b5a34603)"><g transform="matrix(1, 0, 0, 1, -0.000000000000028422, 0)"><g clip-path="url(#7aa92043be)"><g fill="#000000" fill-opacity="1"><g transform="translate(1.865483, 30.628498)"><g><path d="M 9.671875 -20.390625 C 11.742188 -20.390625 13.519531 -20.019531 15 -19.28125 C 16.476562 -18.539062 17.617188 -17.410156 18.421875 -15.890625 C 19.234375 -14.378906 19.640625 -12.476562 19.640625 -10.1875 C 19.640625 -7.90625 19.234375 -6.003906 18.421875 -4.484375 C 17.617188 -2.972656 16.476562 -1.847656 15 -1.109375 C 13.519531 -0.367188 11.742188 0 9.671875 0 L 3.078125 0 L 3.078125 -20.390625 Z M 9.4375 -2.03125 C 11.144531 -2.03125 12.554688 -2.296875 13.671875 -2.828125 C 14.785156 -3.359375 15.628906 -4.222656 16.203125 -5.421875 C 16.785156 -6.617188 17.078125 -8.207031 17.078125 -10.1875 C 17.078125 -12.175781 16.785156 -13.769531 16.203125 -14.96875 C 15.628906 -16.164062 14.785156 -17.03125 13.671875 -17.5625 C 12.554688 -18.09375 11.144531 -18.359375 9.4375 -18.359375 L 5.484375 -18.359375 L 5.484375 -2.03125 Z M 9.4375 -2.03125 "/></g></g></g><g fill="#000000" fill-opacity="1"><g transform="translate(26.26889, 30.628498)"><g><path d="M 14.65625 -7.171875 L 4.09375 -7.171875 C 4.15625 -5.296875 4.601562 -3.921875 5.4375 -3.046875 C 6.269531 -2.179688 7.410156 -1.75 8.859375 -1.75 C 9.953125 -1.75 10.832031 -1.941406 11.5 -2.328125 C 12.175781 -2.722656 12.703125 -3.335938 13.078125 -4.171875 L 13.375 -4.171875 L 14.859375 -3.296875 C 14.410156 -2.179688 13.691406 -1.300781 12.703125 -0.65625 C 11.722656 -0.0195312 10.441406 0.296875 8.859375 0.296875 C 7.367188 0.296875 6.085938 0.00390625 5.015625 -0.578125 C 3.953125 -1.171875 3.128906 -2.0625 2.546875 -3.25 C 1.972656 -4.4375 1.6875 -5.914062 1.6875 -7.6875 C 1.6875 -9.4375 1.988281 -10.910156 2.59375 -12.109375 C 3.207031 -13.304688 4.039062 -14.195312 5.09375 -14.78125 C 6.15625 -15.375 7.363281 -15.671875 8.71875 -15.671875 C 10.6875 -15.671875 12.222656 -15.113281 13.328125 -14 C 14.441406 -12.894531 15 -11.25 15 -9.0625 C 15 -8.207031 14.984375 -7.628906 14.953125 -7.328125 Z M 12.765625 -9.0625 C 12.722656 -10.695312 12.359375 -11.882812 11.671875 -12.625 C 10.984375 -13.375 10 -13.75 8.71875 -13.75 C 7.363281 -13.75 6.300781 -13.375 5.53125 -12.625 C 4.769531 -11.875 4.304688 -10.6875 4.140625 -9.0625 Z M 12.765625 -9.0625 "/></g></g></g><g fill="#000000" fill-opacity="1"><g transform="translate(45.403389, 30.628498)"><g><path d="M 7.015625 0.296875 C 6.046875 0.296875 5.148438 0.171875 4.328125 -0.078125 C 3.503906 -0.335938 2.804688 -0.691406 2.234375 -1.140625 C 1.671875 -1.585938 1.273438 -2.09375 1.046875 -2.65625 L 2.390625 -4.046875 L 2.671875 -4.046875 C 3.179688 -3.285156 3.785156 -2.710938 4.484375 -2.328125 C 5.191406 -1.941406 6.035156 -1.75 7.015625 -1.75 C 8.148438 -1.75 9.007812 -1.96875 9.59375 -2.40625 C 10.1875 -2.84375 10.484375 -3.457031 10.484375 -4.25 C 10.484375 -4.851562 10.300781 -5.351562 9.9375 -5.75 C 9.582031 -6.144531 9.007812 -6.441406 8.21875 -6.640625 L 5.625 -7.28125 C 4.238281 -7.613281 3.222656 -8.140625 2.578125 -8.859375 C 1.941406 -9.585938 1.625 -10.488281 1.625 -11.5625 C 1.625 -12.394531 1.835938 -13.117188 2.265625 -13.734375 C 2.703125 -14.359375 3.320312 -14.835938 4.125 -15.171875 C 4.925781 -15.503906 5.878906 -15.671875 6.984375 -15.671875 C 8.398438 -15.671875 9.515625 -15.472656 10.328125 -15.078125 C 11.140625 -14.679688 11.773438 -14.132812 12.234375 -13.4375 L 10.953125 -12.171875 L 10.671875 -12.171875 C 10.179688 -12.742188 9.644531 -13.15625 9.0625 -13.40625 C 8.476562 -13.65625 7.785156 -13.78125 6.984375 -13.78125 C 5.972656 -13.78125 5.195312 -13.597656 4.65625 -13.234375 C 4.113281 -12.867188 3.84375 -12.34375 3.84375 -11.65625 C 3.84375 -11.03125 4.035156 -10.523438 4.421875 -10.140625 C 4.804688 -9.765625 5.472656 -9.460938 6.421875 -9.234375 L 8.96875 -8.625 C 10.300781 -8.300781 11.265625 -7.769531 11.859375 -7.03125 C 12.460938 -6.300781 12.765625 -5.382812 12.765625 -4.28125 C 12.765625 -3.375 12.550781 -2.578125 12.125 -1.890625 C 11.695312 -1.203125 11.050781 -0.664062 10.1875 -0.28125 C 9.320312 0.101562 8.265625 0.296875 7.015625 0.296875 Z M 7.015625 0.296875 "/></g></g></g><g fill="#000000" fill-opacity="1"><g transform="translate(62.363418, 30.628498)"><g><path d="M 14.65625 -7.171875 L 4.09375 -7.171875 C 4.15625 -5.296875 4.601562 -3.921875 5.4375 -3.046875 C 6.269531 -2.179688 7.410156 -1.75 8.859375 -1.75 C 9.953125 -1.75 10.832031 -1.941406 11.5 -2.328125 C 12.175781 -2.722656 12.703125 -3.335938 13.078125 -4.171875 L 13.375 -4.171875 L 14.859375 -3.296875 C 14.410156 -2.179688 13.691406 -1.300781 12.703125 -0.65625 C 11.722656 -0.0195312 10.441406 0.296875 8.859375 0.296875 C 7.367188 0.296875 6.085938 0.00390625 5.015625 -0.578125 C 3.953125 -1.171875 3.128906 -2.0625 2.546875 -3.25 C 1.972656 -4.4375 1.6875 -5.914062 1.6875 -7.6875 C 1.6875 -9.4375 1.988281 -10.910156 2.59375 -12.109375 C 3.207031 -13.304688 4.039062 -14.195312 5.09375 -14.78125 C 6.15625 -15.375 7.363281 -15.671875 8.71875 -15.671875 C 10.6875 -15.671875 12.222656 -15.113281 13.328125 -14 C 14.441406 -12.894531 15 -11.25 15 -9.0625 C 15 -8.207031 14.984375 -7.628906 14.953125 -7.328125 Z M 12.765625 -9.0625 C 12.722656 -10.695312 12.359375 -11.882812 11.671875 -12.625 C 10.984375 -13.375 10 -13.75 8.71875 -13.75 C 7.363281 -13.75 6.300781 -13.375 5.53125 -12.625 C 4.769531 -11.875 4.304688 -10.6875 4.140625 -9.0625 Z M 12.765625 -9.0625 "/></g></g></g><g fill="#000000" fill-opacity="1"><g transform="translate(81.497917, 30.628498)"><g><path d="M 2.671875 0 L 2.671875 -15.390625 L 4.84375 -15.390625 L 4.84375 -12.96875 L 5.125 -12.90625 C 5.84375 -14.644531 7.191406 -15.515625 9.171875 -15.515625 C 10.222656 -15.515625 11.007812 -15.328125 11.53125 -14.953125 L 10.953125 -13.03125 L 10.671875 -12.96875 C 10.085938 -13.257812 9.453125 -13.40625 8.765625 -13.40625 C 7.546875 -13.40625 6.601562 -12.941406 5.9375 -12.015625 C 5.28125 -11.097656 4.953125 -9.609375 4.953125 -7.546875 L 4.953125 0 Z M 2.671875 0 "/></g></g></g><g fill="#000000" fill-opacity="1"><g transform="translate(96.116209, 30.628498)"><g><path d="M 9.734375 0 L 6.609375 0 L 0.75 -15.390625 L 3.203125 -15.390625 L 8.046875 -2.59375 L 8.375 -2.59375 L 13.171875 -15.390625 L 15.5625 -15.390625 Z M 9.734375 0 "/></g></g></g><g fill="#000000" fill-opacity="1"><g transform="translate(114.860289, 30.628498)"><g><path d="M 14.65625 -7.171875 L 4.09375 -7.171875 C 4.15625 -5.296875 4.601562 -3.921875 5.4375 -3.046875 C 6.269531 -2.179688 7.410156 -1.75 8.859375 -1.75 C 9.953125 -1.75 10.832031 -1.941406 11.5 -2.328125 C 12.175781 -2.722656 12.703125 -3.335938 13.078125 -4.171875 L 13.375 -4.171875 L 14.859375 -3.296875 C 14.410156 -2.179688 13.691406 -1.300781 12.703125 -0.65625 C 11.722656 -0.0195312 10.441406 0.296875 8.859375 0.296875 C 7.367188 0.296875 6.085938 0.00390625 5.015625 -0.578125 C 3.953125 -1.171875 3.128906 -2.0625 2.546875 -3.25 C 1.972656 -4.4375 1.6875 -5.914062 1.6875 -7.6875 C 1.6875 -9.4375 1.988281 -10.910156 2.59375 -12.109375 C 3.207031 -13.304688 4.039062 -14.195312 5.09375 -14.78125 C 6.15625 -15.375 7.363281 -15.671875 8.71875 -15.671875 C 10.6875 -15.671875 12.222656 -15.113281 13.328125 -14 C 14.441406 -12.894531 15 -11.25 15 -9.0625 C 15 -8.207031 14.984375 -7.628906 14.953125 -7.328125 Z M 12.765625 -9.0625 C 12.722656 -10.695312 12.359375 -11.882812 11.671875 -12.625 C 10.984375 -13.375 10 -13.75 8.71875 -13.75 C 7.363281 -13.75 6.300781 -13.375 5.53125 -12.625 C 4.769531 -11.875 4.304688 -10.6875 4.140625 -9.0625 Z M 12.765625 -9.0625 "/></g></g></g></g></g></g></g></g></g><g clip-path="url(#e24f766c49)"><g transform="matrix(1, 0, 0, 1, 94, 38)"><g clip-path="url(#229b875f4a)"><g fill="#936282" fill-opacity="1"><g transform="translate(0.935733, 31.224219)"><g><path d="M 3.078125 0 L 3.078125 -20.390625 L 10.8125 -20.390625 C 12.0625 -20.390625 13.125 -20.1875 14 -19.78125 C 14.875 -19.382812 15.53125 -18.816406 15.96875 -18.078125 C 16.414062 -17.335938 16.640625 -16.457031 16.640625 -15.4375 C 16.640625 -14.550781 16.398438 -13.75 15.921875 -13.03125 C 15.441406 -12.320312 14.753906 -11.765625 13.859375 -11.359375 L 13.859375 -11.078125 C 15.222656 -10.742188 16.253906 -10.132812 16.953125 -9.25 C 17.648438 -8.363281 18 -7.25 18 -5.90625 C 18 -4.007812 17.441406 -2.550781 16.328125 -1.53125 C 15.222656 -0.507812 13.578125 0 11.390625 0 Z M 10.703125 -11.828125 C 11.828125 -11.828125 12.695312 -12.117188 13.3125 -12.703125 C 13.9375 -13.296875 14.25 -14.109375 14.25 -15.140625 C 14.25 -16.234375 13.945312 -17.050781 13.34375 -17.59375 C 12.75 -18.132812 11.867188 -18.40625 10.703125 -18.40625 L 5.484375 -18.40625 L 5.484375 -11.828125 Z M 11.21875 -1.984375 C 14.113281 -1.984375 15.5625 -3.289062 15.5625 -5.90625 C 15.5625 -8.53125 14.113281 -9.84375 11.21875 -9.84375 L 5.484375 -9.84375 L 5.484375 -1.984375 Z M 11.21875 -1.984375 "/></g></g></g><g fill="#936282" fill-opacity="1"><g transform="translate(32.488429, 31.224219)"><g><path d="M 5.484375 -9.609375 L 5.484375 -1.984375 L 15.875 -1.984375 L 15.875 0 L 3.078125 0 L 3.078125 -20.390625 L 15.640625 -20.390625 L 15.640625 -18.40625 L 5.484375 -18.40625 L 5.484375 -11.59375 L 14.453125 -11.59375 L 14.453125 -9.609375 Z M 5.484375 -9.609375 "/></g></g></g><g fill="#936282" fill-opacity="1"><g transform="translate(61.643633, 31.224219)"><g><path d="M 15.90625 -20.390625 L 15.90625 -18.359375 L 9.53125 -18.359375 L 9.53125 0 L 7.140625 0 L 7.140625 -18.359375 L 0.75 -18.359375 L 0.75 -20.390625 Z M 15.90625 -20.390625 "/></g></g></g><g fill="#936282" fill-opacity="1"><g transform="translate(90.227342, 31.224219)"><g><path d="M 15.90625 -20.390625 L 15.90625 -18.359375 L 9.53125 -18.359375 L 9.53125 0 L 7.140625 0 L 7.140625 -18.359375 L 0.75 -18.359375 L 0.75 -20.390625 Z M 15.90625 -20.390625 "/></g></g></g><g fill="#936282" fill-opacity="1"><g transform="translate(118.811051, 31.224219)"><g><path d="M 5.484375 -9.609375 L 5.484375 -1.984375 L 15.875 -1.984375 L 15.875 0 L 3.078125 0 L 3.078125 -20.390625 L 15.640625 -20.390625 L 15.640625 -18.40625 L 5.484375 -18.40625 L 5.484375 -11.59375 L 14.453125 -11.59375 L 14.453125 -9.609375 Z M 5.484375 -9.609375 "/></g></g></g><g fill="#936282" fill-opacity="1"><g transform="translate(147.966255, 31.224219)"><g><path d="M 3.078125 0 L 3.078125 -20.390625 L 10.484375 -20.390625 C 11.847656 -20.390625 12.992188 -20.160156 13.921875 -19.703125 C 14.859375 -19.253906 15.554688 -18.617188 16.015625 -17.796875 C 16.484375 -16.972656 16.71875 -16 16.71875 -14.875 C 16.71875 -13.613281 16.398438 -12.570312 15.765625 -11.75 C 15.140625 -10.925781 14.15625 -10.3125 12.8125 -9.90625 L 12.8125 -9.609375 C 13.476562 -9.347656 14.019531 -8.9375 14.4375 -8.375 C 14.851562 -7.820312 15.238281 -6.992188 15.59375 -5.890625 L 17.46875 0 L 15 0 L 12.96875 -6.234375 C 12.726562 -6.960938 12.445312 -7.535156 12.125 -7.953125 C 11.8125 -8.378906 11.410156 -8.6875 10.921875 -8.875 C 10.441406 -9.0625 9.832031 -9.15625 9.09375 -9.15625 L 5.484375 -9.15625 L 5.484375 0 Z M 10.4375 -11.1875 C 11.707031 -11.1875 12.65625 -11.476562 13.28125 -12.0625 C 13.90625 -12.65625 14.21875 -13.554688 14.21875 -14.765625 C 14.21875 -15.972656 13.90625 -16.875 13.28125 -17.46875 C 12.65625 -18.0625 11.707031 -18.359375 10.4375 -18.359375 L 5.484375 -18.359375 L 5.484375 -11.1875 Z M 10.4375 -11.1875 "/></g></g></g></g></g></g><g clip-path="url(#3930dac753)"><g transform="matrix(1, 0, 0, 1, -0.000000000000007105, 18)"><g clip-path="url(#6bf5a7c419)"><g fill="#000000" fill-opacity="1"><g transform="translate(0.876388, 35.654504)"><g><path d="M 4.015625 7.71875 C 3.234375 7.71875 2.523438 7.65625 1.890625 7.53125 C 1.265625 7.40625 0.753906 7.242188 0.359375 7.046875 L 1.09375 3.359375 L 1.390625 3.265625 C 1.660156 3.410156 2 3.523438 2.40625 3.609375 C 2.8125 3.691406 3.226562 3.734375 3.65625 3.734375 C 4.394531 3.734375 5.007812 3.640625 5.5 3.453125 C 5.988281 3.265625 6.398438 2.945312 6.734375 2.5 C 7.078125 2.050781 7.378906 1.429688 7.640625 0.640625 L 0.390625 -18.171875 L 5.171875 -18.171875 L 9.6875 -5.53125 L 10.078125 -5.53125 L 14.484375 -18.171875 L 19.125 -18.171875 L 11.828125 1.140625 C 11.242188 2.703125 10.601562 3.957031 9.90625 4.90625 C 9.207031 5.851562 8.382812 6.554688 7.4375 7.015625 C 6.488281 7.484375 5.347656 7.71875 4.015625 7.71875 Z M 4.015625 7.71875 "/></g></g></g><g fill="#000000" fill-opacity="1"><g transform="translate(20.038394, 35.654504)"><g><path d="M 10.5625 0.34375 C 8.78125 0.34375 7.21875 -0.0195312 5.875 -0.75 C 4.53125 -1.476562 3.484375 -2.546875 2.734375 -3.953125 C 1.992188 -5.367188 1.625 -7.078125 1.625 -9.078125 C 1.625 -11.078125 1.992188 -12.785156 2.734375 -14.203125 C 3.484375 -15.617188 4.53125 -16.691406 5.875 -17.421875 C 7.21875 -18.148438 8.78125 -18.515625 10.5625 -18.515625 C 12.34375 -18.515625 13.90625 -18.148438 15.25 -17.421875 C 16.59375 -16.691406 17.640625 -15.617188 18.390625 -14.203125 C 19.140625 -12.785156 19.515625 -11.078125 19.515625 -9.078125 C 19.515625 -7.078125 19.140625 -5.367188 18.390625 -3.953125 C 17.640625 -2.546875 16.59375 -1.476562 15.25 -0.75 C 13.90625 -0.0195312 12.34375 0.34375 10.5625 0.34375 Z M 10.5625 -3.53125 C 13.382812 -3.53125 14.796875 -5.378906 14.796875 -9.078125 C 14.796875 -11.003906 14.429688 -12.414062 13.703125 -13.3125 C 12.984375 -14.207031 11.9375 -14.65625 10.5625 -14.65625 C 7.738281 -14.65625 6.328125 -12.796875 6.328125 -9.078125 C 6.328125 -5.378906 7.738281 -3.53125 10.5625 -3.53125 Z M 10.5625 -3.53125 "/></g></g></g><g fill="#000000" fill-opacity="1"><g transform="translate(41.161126, 35.654504)"><g><path d="M 8.328125 0.34375 C 6.273438 0.34375 4.765625 -0.210938 3.796875 -1.328125 C 2.828125 -2.441406 2.34375 -4.039062 2.34375 -6.125 L 2.34375 -18.171875 L 6.90625 -18.171875 L 6.90625 -6.703125 C 6.90625 -5.597656 7.144531 -4.789062 7.625 -4.28125 C 8.101562 -3.769531 8.84375 -3.515625 9.84375 -3.515625 C 11.101562 -3.515625 12.082031 -3.925781 12.78125 -4.75 C 13.488281 -5.582031 13.84375 -6.890625 13.84375 -8.671875 L 13.84375 -18.171875 L 18.40625 -18.171875 L 18.40625 0 L 14.03125 0 L 14.03125 -2.671875 L 13.671875 -2.75 C 13.085938 -1.707031 12.375 -0.929688 11.53125 -0.421875 C 10.695312 0.0859375 9.628906 0.34375 8.328125 0.34375 Z M 8.328125 0.34375 "/></g></g></g></g></g></g><g clip-path="url(#1aba4a1eb7)"><path stroke-linecap="butt" transform="matrix(0.00000000211237, 1.210301, -1.210301, 0.00000000211237, 84.550045, 17.20143)" fill="none" stroke-linejoin="miter" d="M 0.00140086 0.999917 L 48.452662 0.999917 " stroke="#491336" stroke-width="2" stroke-opacity="1" stroke-miterlimit="4"/></g><g clip-path="url(#7b3df87171)"><g transform="matrix(1, 0, 0, 1, 64, 0)"><g clip-path="url(#d7537f7e2f)"><g fill="#cc1262" fill-opacity="1"><g transform="translate(0.819575, 52.409921)"><g><path d="M 6.828125 0.21875 C 5.972656 0.21875 5.21875 0.046875 4.5625 -0.296875 C 3.914062 -0.648438 3.414062 -1.132812 3.0625 -1.75 C 2.71875 -2.363281 2.546875 -3.054688 2.546875 -3.828125 C 2.546875 -4.609375 2.71875 -5.300781 3.0625 -5.90625 C 3.414062 -6.519531 3.914062 -7.003906 4.5625 -7.359375 C 5.21875 -7.722656 5.972656 -7.90625 6.828125 -7.90625 C 7.703125 -7.90625 8.46875 -7.726562 9.125 -7.375 C 9.78125 -7.03125 10.28125 -6.550781 10.625 -5.9375 C 10.976562 -5.320312 11.15625 -4.628906 11.15625 -3.859375 C 11.15625 -2.671875 10.757812 -1.691406 9.96875 -0.921875 C 9.1875 -0.160156 8.140625 0.21875 6.828125 0.21875 Z M 6.828125 0.21875 "/></g></g></g></g></g></g></g></g></svg>